<svg height="24" width="24" xmlns="http://www.w3.org/2000/svg" viewBox="0 0 24 24"><path d="M11.996.008C8.738.008 8.33.021 7.05.08 5.773.138 4.901.341 4.138.637a5.886 5.886 0 00-2.125 1.384A5.883 5.883 0 00.63 4.146c-.297.763-.5 1.635-.558 2.912C.014 8.337 0 8.746 0 12.004s.014 3.666.072 4.946c.058 1.277.261 2.149.558 2.912a5.883 5.883 0 001.383 2.125 5.883 5.883 0 002.125 1.383c.763.297 1.635.5 2.912.558 1.28.058 1.688.072 4.946.072s3.667-.014 4.946-.072c1.277-.058 2.149-.261 2.912-.558a5.883 5.883 0 002.125-1.383 5.886 5.886 0 001.384-2.125c.296-.763.499-1.635.557-2.912.059-1.28.072-1.688.072-4.946s-.013-3.667-.072-4.946c-.058-1.277-.261-2.149-.557-2.912-.307-.789-.717-1.458-1.384-2.125S20.643.944 19.854.637C19.091.341 18.219.138 16.942.08 15.663.021 15.254.008 11.996.008zm0 2.161c3.203 0 3.583.012 4.848.07 1.169.053 1.805.249 2.227.413.56.218.96.478 1.38.897.419.42.679.82.897 1.38.164.422.36 1.058.413 2.227.058 1.265.07 1.645.07 4.848s-.012 3.582-.07 4.847c-.053 1.17-.249 1.805-.413 2.228a3.73 3.73 0 01-.897 1.379c-.42.42-.82.68-1.38.898-.422.164-1.058.359-2.227.413-1.265.057-1.644.07-4.848.07-3.203 0-3.582-.013-4.847-.07-1.17-.054-1.805-.249-2.228-.413-.56-.218-.959-.478-1.379-.898s-.68-.819-.898-1.379c-.164-.423-.359-1.058-.413-2.228-.057-1.265-.07-1.644-.07-4.847s.013-3.583.07-4.848c.054-1.169.249-1.805.413-2.227.218-.56.478-.96.898-1.38a3.73 3.73 0 011.379-.897c.423-.164 1.058-.36 2.228-.413 1.265-.058 1.644-.07 4.847-.07z"/><path d="M11.996 16.003a4 4 0 11.002-8 4 4 0 01-.002 8zm0-10.159a6.16 6.16 0 100 12.32 6.16 6.16 0 000-12.32zM19.839 5.6a1.44 1.44 0 11-2.879.001 1.44 1.44 0 012.879-.001"/></svg>