<svg width="24" height="24" xmlns="http://www.w3.org/2000/svg" viewBox="0 0 24 24"><path d="M13.131 1.2l.112.006 8.369.447c.383 0 .735.35.735.733l.447 8.357a.727.727 0 01-.224.606L11.582 22.385a1.4 1.4 0 01-1.023.415 1.4 1.4 0 01-1.022-.415l-7.922-7.91c-.255-.287-.415-.638-.415-1.02 0-.383.128-.766.415-1.021l11.02-11.005a.729.729 0 01.608-.223zm.33 1.8L3 13.46 10.54 21 21 10.54l-.377-7.163L13.461 3zm.55 3.03c1.114-1.106 2.896-1.106 3.978 0 1.081 1.074 1.081 2.874 0 3.949-.573.537-1.273.821-2.005.821-.7 0-1.432-.284-1.973-.821l-.13-.138c-.95-1.085-.906-2.782.13-3.812zm2.864 1.105a1.216 1.216 0 00-1.718 0 1.195 1.195 0 000 1.706c.445.474 1.24.442 1.718 0a1.195 1.195 0 000-1.706z"/></svg>