<svg width="24" height="24" xmlns="http://www.w3.org/2000/svg" viewBox="0 0 24 24"><path d="M14.975 16.461c-.163-1.489-1.447-2.648-3.006-2.648H8.246c-1.67 0-3.024 1.329-3.024 2.968v.255A8.89 8.89 0 01.778 9.333c0-4.906 3.973-8.889 8.88-8.889 4.915 0 8.898 3.983 8.898 8.889a8.873 8.873 0 01-3.581 7.128zm-5.286 1.761h-.062zM9.667 5.778a3.556 3.556 0 100 7.112 3.556 3.556 0 000-7.112zm5.497 16.889l-4.323-4.215a1.327 1.327 0 010-1.91 1.411 1.411 0 011.959 0l2.375 2.315 6.465-6.235a1.412 1.412 0 011.96.011c.538.53.533 1.385-.011 1.91z"/></svg>